<?xml version="1.0" encoding="utf-8"?>
<!-- Generator: Adobe Illustrator 24.0.1, SVG Export Plug-In . SVG Version: 6.00 Build 0)  -->
<svg version="1.1" id="Layer_1" xmlns="http://www.w3.org/2000/svg" xmlns:xlink="http://www.w3.org/1999/xlink" x="0px" y="0px"
	 viewBox="0 0 291.6 285" style="enable-background:new 0 0 291.6 285;" xml:space="preserve">
<style type="text/css">
	.st0{fill:#D57827;}
	.st1{fill:#626366;}
	.st2{opacity:0.2;fill:#D57827;}
	.st3{opacity:0.6;fill:whitesmoke;}
</style>
<g>
	<g>
		<path class="st0" d="M109.3,146.6c-0.5,0-2.4-2.2-5.8-6.2c-1.3-1.5-2.8-3.2-4.5-5.1c-2.4,2.6-2.7,3.1-2.7,3.2
			c-1.4,1.6-3.3,2.5-5.1,2.5c-1.1,0-2.2-0.4-3-1c-0.9-0.7-1.5-1.9-1.6-3.2c-0.1-1.8,0.6-3.7,1.9-5.2c0.1-0.3,1.6-1.9,3.6-4.1
			c-4.6-4.9-9.2-9.6-13.7-13.9c-3.7,3-6,4.9-6.2,5.2c-1.1,0.9-2.3,1.4-3.6,1.4c-1.1,0-2.1-0.4-2.8-1.2c-0.6-0.7-0.9-1.6-0.8-2.6
			c0.1-1.4,0.9-2.8,2.1-3.8c0.2-0.2,2-1.8,5.5-4.4c-3.7-3.3-7.5-6.5-11.2-9.4c-1.9-1.6-3.6-3-5.3-4.2c-5.3,2.3-8.5,3.8-8.7,4
			c-0.7,0.3-1.4,0.5-2.1,0.5c-1.3,0-2.5-0.6-3-1.6c-0.3-0.7-0.4-1.4-0.1-2.2c0.4-1.1,1.2-2,2.4-2.6c0.2-0.2,2.1-1.1,5.6-2.5
			c-4.7-3.4-9.6-6.8-15.1-10.3l-1.3,0c-8.4,0-14.2,0.3-14.6,0.4l-0.2,0c-1.9,0-3.5-1.5-3.7-3.4c-0.1-1,0.2-1.9,0.9-2.6
			c0.7-0.8,1.6-1.2,2.6-1.3c0.2,0,1.9-0.1,4.7-0.1C12.3,66.5,4,62.6,3.6,62.5c-1.8-0.8-2.3-3.6-1.2-6.3c0.8-2,2.6-3.4,4.4-3.4
			c0.4,0,0.9,0.1,1.3,0.3c0.8,0.2,15.7,7.8,33.3,20.3c10.4,0.5,26.2,1.8,42.2,5.2c12.2-3.6,23.8-6.3,34.6-7.9
			c6.3-1.2,13.1-2.1,20-2.8c3.3-1.6,6.6-3.1,9.7-4.5c13.8-6.6,29.3-12.4,45.9-17.4c45.5-28.2,91.9-44.1,95.8-44.1
			c0.1,0,0.3,0,0.3,0.1c0.1,0.3-2.1,1.4-9.1,4.6C267.4,12.7,242.7,24.1,216,40c9.8-2.2,17.1-3.4,19.4-3.4c0.6,0,0.7,0.1,0.7,0.2
			c0.1,0.2-1.2,0.6-7.1,2.3c-5.2,1.4-13,3.6-22.2,6.6c-7.2,4.5-14,9.1-20.3,13.7c-3.4,2.3-7,4.8-10.7,7.5c10,0.5,16.7,1.4,17.1,1.9
			c0,0,0,0.1,0,0.1c0,0.2-0.5,0.2-4.1,0.2l-3.6,0c-3.2,0-7.6,0-12.7,0.2c-11.4,8.5-23.2,18-35,28.5c7,3.8,11.4,6.9,11.6,7.6
			c0,0.1,0,0.1,0,0.1c0,0-0.1,0-0.1,0c-0.2,0-1.1-0.4-3.2-1.4c-2.3-1.1-5.8-2.7-10.2-4.6c-17.4,15.6-29.7,28.5-34.2,33.3
			c5.3,7.5,8.3,12.9,8.1,13.7C109.5,146.5,109.4,146.6,109.3,146.6C109.4,146.6,109.3,146.6,109.3,146.6z M83.2,110.1
			c4.2,4.6,8.2,9.4,12,14.3c5.1-5.2,15.9-15.9,30.8-28.8c-5-1.9-9.9-3.7-14.7-5.1C99.3,98.2,89.4,105.4,83.2,110.1z M64.9,92.1
			c0.4,0.4,0.9,0.8,1.3,1.2c3.9,3.4,7.9,7.1,11.7,11.1c5.3-3.9,13.8-9.9,24.4-16.6c-5.6-1.4-10.8-2.5-15.9-3.3
			c-0.4-0.1-0.7-0.1-1.1-0.2c-0.3,0-0.6-0.1-0.8-0.2c-6.9,2.2-13.7,4.7-20.3,7.3C64.4,91.7,64.7,91.9,64.9,92.1z M115.7,87.6
			c4.4,1.7,8.8,3.6,13.1,5.6c9.8-8.4,19.7-16.3,29.3-23.4c-4.5,0.3-8.8,0.7-12.9,1.1C135.7,75.7,125.8,81.3,115.7,87.6z M50.9,80.4
			c2.8,2.2,5.4,4.3,7.9,6.4c4.2-1.6,8.6-3.2,12.8-4.6C65.1,81.4,58.1,80.8,50.9,80.4z M94.7,81c4.1,1,8.4,2.2,12.7,3.7
			c6.3-3.9,12.8-7.6,19.2-11c-2.5,0.4-5.1,1-7.7,1.5C111.4,76.6,103.3,78.5,94.7,81z M178.3,55.8c-8.8,3.5-17.2,7.2-24.7,11
			c3.1-0.1,6.1-0.2,9-0.2C167.6,62.9,172.9,59.3,178.3,55.8z"/>
		<path class="st1" d="M43.8,240.1c0,8.9,7.2,16.2,16.1,16.2c8.9,0,16.1-7.3,16.1-16.2c0-8.9-7.2-16.2-16.1-16.2
			C51,223.9,43.8,231.2,43.8,240.1z M51.9,240.1c0-5.3,3.3-9,8-9c4.7,0,8,3.7,8,9c0,5.3-3.3,8.9-8,8.9
			C55.1,249,51.9,245.4,51.9,240.1z M31.4,214.7v21.5v5.6l-16-20.7l-4.9-6.4h-6H1.8v33.2v7.4h5.8h2.5v-22.2v-5.9l18.7,24l3.2,4.2
			h5.8h2.4v-36.9v-3.7h-6.7H31.4z M86.9,228c0-1.1,0-3,0-3h-5.6h-2.1v26.6v3.8h5.5h2.2V246v-3.9V242c0.1-2.2-0.2-9.5,4.6-10.1
			c2.8-0.4,4.6,0.5,4.6,0.5v-5.3v-2.4c0,0-2.1-0.6-3.1-0.6C89.5,224.1,88,226.3,86.9,228z M104.4,217.7v4.8v2.2h-3.2h-1.7v5.2v2.6
			h4.9v9.5v5.1c0,6.3,3.1,9.1,10.1,9.1c2.2,0,3.7-0.2,6.6-0.6l0.9-0.1v-5.3V248l-0.9,0.3c-1.5,0.5-4,0.8-5.2,0.8
			c-2.6,0-3.8-1.1-3.8-3.5v-10.4v-2.6h7.2l1.5-4.8l0.9-3h-7.2h-2.3v-6.5v-2.9l-5.3,1.6L104.4,217.7z M125.4,212.3v28.2v14.7h3.7h4.1
			c0,0,0-6.9,0-12.6c0-4,0-7.5,0-7.8c1.5-1.9,3.5-3.8,8-3.8c3.2,0,5.2,1.2,5.2,7.4v7.6v9.2h4h3.8v-11.7V236
			c0-7.9-3.9-12.1-11.4-12.1c-4.7,0-7.5,1.7-9.5,3.6c0-1.4,0-10.1,0-10.1V210l-5.4,1.6L125.4,212.3z M196.3,225.5l-3.4,9
			c0,0-3,8-3.5,9.4c-0.6-1.8-4.6-12.4-4.6-12.4l-2.2-6h-3.9h-2.7l-2.9,8.1c0,0-3.2,8.8-3.7,10.3c-0.6-1.6-3.9-10.6-3.9-10.6
			l-2.8-7.7H157h-2.4l6.3,16.4l5.1,13.4h2.8h4.2l3.1-8.9c0,0,2.9-8.5,3.4-9.9c0.4,1.2,2.7,7.7,2.7,7.7l3.8,11.1h3.3h3.7l4.4-11.7
			l6.8-18.1H199H196.3z M251.6,236c-3.8-0.6-5.8-0.9-5.8-2.4c0-1.3,1.4-2.8,5.4-2.8c3.7,0,5.8,1.4,7.1,2.7l3.1-2.3l2.9-2.2
			c-4.4-4.5-10.4-5.1-12.9-5.1c-10.8,0-13.6,6.2-13.6,9.9c0,5.8,3.9,8.8,13.1,10c6.8,1,7.7,1.2,7.7,2.7c0,2.1-3.1,2.9-5.7,2.9
			c-4.2,0-7.3-1.4-9.1-4.1l-3,2.2l-3.2,2.4c2.3,2.9,5.8,6.4,14.6,6.4c9.2,0,14.4-3.7,14.4-10.2C266.6,238,258.7,236.9,251.6,236z
			 M271.3,217.7v4.2v2.9h-3.1h-1.8v4.4v3.3h3.3h1.6v5v9.6c0,6.3,3.1,9.1,10.1,9.1c2.2,0,3.7-0.2,6.6-0.6l0.9-0.1v-2.1V248l-0.9,0.3
			c-1.5,0.5-4,0.8-5.2,0.8c-2.6,0-3.8-1.1-3.8-3.5v-7.1v-6h4.9h3.5l0.7-4.9l0.4-2.9H282h-3v-5.5v-3.9l-4.9,1.5L271.3,217.7z
			 M219.6,224c-11,0-15.9,8.1-15.9,16.1c0,9.7,6.6,16.2,16.4,16.2c8,0,11.9-4.3,13.5-6.9l-4.1-2.2l-2.9-1.5
			c-0.7,1.7-2.9,3.6-6.7,3.6c-4.4-0.2-7-2.4-7.9-6.4c0.8,0,9.3,0,9.3,0h14.4V242C235.5,230.7,229.7,224.1,219.6,224z M212.2,236
			c1.1-3.3,3.4-5,7.2-5c4.1,0,6.5,1.6,7.5,5c-1.1,0-9.3,0-9.3,0S213,236,212.2,236z M1.8,164.1v5.1v35.4h2h6.8v-2.2c0,0,0-12,0-13
			c0.4,0,2.2,0,2.2,0h4.9c6.1,0,17.5,0,17.5-12.7c0-12.7-11.4-12.7-17.5-12.7h-2.5H1.8z M19.2,172.1c4.8,0,7.1,0.7,7.1,4.6
			c0,4-2.3,4.7-7.1,4.7h-2.4c0,0-5.4,0-6.2,0c0-0.4,0-2.8,0-2.8s0-5.7,0-6.5c0.5,0,3.4,0,3.4,0H19.2z M65.7,203.6
			c-0.2-0.3-0.4-1.3-0.4-4.3v-14.4c0-3.7,0-11.5-14.2-11.5c-7.1,0-11.9,2.5-13.9,7.2l3.3,0.8l4.3,1c0.6-1,2.1-2.2,6.3-2.2
			c4.3,0,6.4,1,6.4,3c0,0,0,0.3,0,0.6c-7.3,0.5-22.7,1.7-22.7,12.4c0,7.5,7.1,9.5,11.3,9.5c5.1,0,9-2,11.4-3.4
			c0.1,0.7,0.2,1.3,0.3,1.8l0.1,0.6h4.6h3.6L65.7,203.6z M57.6,195.5c-2.7,1.7-6.2,3.4-10.4,3.4c-1.4,0-2.6-0.4-3.2-1.1
			c-0.5-0.5-0.7-1.2-0.7-2.1c0,0,0-0.1,0-0.1c0-1.5,0.7-3.1,5.3-4.2c3-0.8,6-1.2,9-1.4c0,0.5,0,2.6,0,2.6S57.6,195.2,57.6,195.5z
			 M92.7,194.3c-0.9,2.2-3.6,4.2-7.8,4.2c-6,0-8.2-4.9-8.2-9.4c0-4.1,3-8.5,8.7-8.5c3.8,0,6.1,2,7,3.8l5.3-1.4l2.2-0.6
			c-1.6-4.8-6.5-9-15-9c-10.6,0.1-16.1,7.8-16.1,15.4c0,10.7,6.1,16.9,16.7,16.9c8.1,0,12.7-4.6,14.7-9.4l-5.8-1.5L92.7,194.3z
			 M103.5,163.1v5.6v1.8h6.5h1.3v-6.1v-1.3h-6.2H103.5z M103.5,174.3v26v4.4h5.2h2.5v-22.5v-7.8h-5.4H103.5z M127.8,174
			c0-1.2,0.3-1.9,0.9-2.6c1.1-1.5,5.3-1.8,8.2-1.5l1.1-3.5l1.1-3.4l-0.5-0.1c-3-0.5-6.7-0.3-7-0.3h-0.1c-1.5,0-6.2,0.5-9.1,3.6
			c-1.5,1.6-2.3,3.8-2.3,6.5c0,0,0,1.7,0,2.6c-1.1,0-5.1,0-5.1,0v2.4v4.8h3.5c0,0,1.3,0,1.6,0c0,0.9,0,16.8,0,16.8v5.4h4.8h2.9
			v-19.8c0,0,0-2.2,0-2.5c0.7,0,5.1,0,5.1,0h2.4l1.1-3.5l1.2-3.7h-6.1c0,0-3.3,0-3.8,0C127.8,174.7,127.8,174,127.8,174z
			 M142.4,204.7h2.6h5.1v-5.1v-25.3h-2h-5.7v4V204.7z M142.4,163.1v4.7v2.7h3.9h3.9v-3.1v-4.2h-2.8H142.4z M177.7,194.3
			c-0.9,2.2-3.5,4.2-7.8,4.2c-6,0-8.2-4.9-8.2-9.4c0-4.1,3.1-8.5,8.7-8.5c3.9,0,6.1,2,7,3.8l5.2-1.4l2.3-0.6c-1.6-4.8-6.5-9-15-9
			c-10.6,0.1-16.1,7.8-16.1,15.4c0,10.7,6.1,16.9,16.7,16.9c8.1,0,12.7-4.6,14.7-9.4l-5.3-1.4L177.7,194.3z M1.8,268.2H3h1.5
			l3.3,4.4l4.5,6v-5.8v-4.6h1H15v6.5v8.3h-1.6h-1.1l-4.8-6.4l-3-4v3.7v6.7H3.3H1.8v-4.6V268.2z M29.6,280.3H27h-4.6l-0.7,1.6
			l-0.5,1.1h-2.2h-0.8l2.7-6.5l3.5-8.3h1.3h1.7l3.1,7.3l3.1,7.5h-1.9h-1L29.6,280.3z M28.6,278l-0.8-1.9l-1.8-4.3l-1.3,3.1l-1.3,3.1
			H26H28.6z M38.2,270.6h-2.7h-2v-1.5v-0.9h2.9h9.2v1.2v1.3h-2.1h-2.6v7v5.3h-1.1h-1.6v-6.3V270.6z M49.4,268.2h1h1.7v9.4v5.4h-1.6
			h-1.1v-9.1V268.2z M55.8,275.6c0-4.2,3.6-7.6,7.8-7.6c4.2,0,7.8,3.5,7.8,7.6c0,4.2-3.6,7.7-7.8,7.7
			C59.4,283.2,55.8,279.7,55.8,275.6z M68.6,275.6c0-2.8-2.3-5.2-5-5.2c-2.7,0-5,2.4-5,5.2c0,2.8,2.3,5.2,5,5.2
			C66.3,280.8,68.6,278.4,68.6,275.6z M74.7,268.2h1.1h1.6l3.1,4.1l4.7,6.3v-5.5v-4.9h1.2h1.4v8.3v6.5h-1.6h-1l-4.9-6.5l-2.9-3.9
			v6.6v3.8h-1.3h-1.3v-8V268.2z M102.2,280.3h-4.1h-3l-0.5,1.1l-0.7,1.6h-1.7h-1.3l2.9-7l3.2-7.8h2h1l2.5,6l3.7,8.8h-0.8h-2.2
			l-0.6-1.5L102.2,280.3z M101.2,278l-0.8-1.9l-1.8-4.3l-0.8,1.8L96,278h1.9H101.2z M120.2,280.5v1.1v1.3h-5.7h-4.6v-9.7v-5.1h1.3
			h1.3v6.9v5.5h4H120.2z M143.7,280.5v1.5v1h-6.1h-4.2v-4.8v-10h0.8h1.9v8.2v4.2h4.5H143.7z M158.4,280.3h-5.7h-1.4l-0.8,2l-0.3,0.7
			H148h-0.9l4-9.6l2.2-5.2h1h2l2.9,6.9l3.3,7.9h-2.2h-0.8l-0.8-1.8L158.4,280.3z M157.4,278l-0.9-2.2l-1.7-4l-1.4,3.4l-1.2,2.8h3.1
			H157.4z M165.6,268.2h3h4.3c2.6,0,4.4,1.6,4.4,3.7c0,1.5-0.8,2.6-2.1,3.3c1.7,0.8,2.7,2.2,2.7,3.8c0,2.4-2,4-4.7,4h-4.6h-2.9v-6.7
			V268.2z M172.2,274.2c1.3,0,2.3-0.8,2.3-1.9c0-1.1-0.9-1.9-2.3-1.9h-1.8h-2.1v2.1v1.6h1.2H172.2z M172.6,280.7
			c1.5,0,2.5-0.9,2.5-2.1c0-1.2-1-2.1-2.5-2.1h-2.3h-2.1v2.4v1.8h2.4H172.6z M180.4,275.6c0-4.2,3.6-7.6,7.8-7.6
			c4.2,0,7.8,3.5,7.8,7.6c0,4.2-3.6,7.7-7.8,7.7C184,283.2,180.4,279.7,180.4,275.6z M193.2,275.6c0-2.8-2.3-5.2-5-5.2
			c-2.7,0-5,2.4-5,5.2c0,2.8,2.3,5.2,5,5.2C190.9,280.8,193.2,278.4,193.2,275.6z M207.9,283l-1.7-2.5l-1.8-2.5h-1.2h-1.7v2.5v2.5
			h-1.5h-1.2v-9.1v-5.7h3h3.5c3.2,0,5.5,2,5.5,4.9c0,2.2-1.4,4-3.6,4.6l2.8,3.9l0.9,1.3h-1.1H207.9z M201.6,275.5h2h1.5
			c1.8,0,3.1-0.9,3.1-2.4c0-1.5-1.3-2.4-3.1-2.4h-1.6h-1.8v3.3V275.5z M224.7,280.3h-1.8h-5.3l-0.3,0.8l-0.8,1.9h-1.1h-1.9l2.8-6.6
			l3.4-8.2h0.9h2.1l2.5,6.1l3.6,8.7h-0.9h-2.1l-0.4-1L224.7,280.3z M223.8,278l-2-4.7l-0.6-1.5l-2,4.9l-0.6,1.4h3.8H223.8z
			 M233.3,270.6h-0.9h-3.8v-0.8v-1.6h3h9.1v0.7v1.8h-0.9H236v1.5V283h-0.8h-1.9v-1.8V270.6z M241.8,275.6c0-4.2,3.6-7.6,7.8-7.6
			c4.2,0,7.8,3.5,7.8,7.6c0,4.2-3.6,7.7-7.8,7.7C245.3,283.2,241.8,279.7,241.8,275.6z M254.5,275.6c0-2.8-2.3-5.2-5-5.2
			c-2.7,0-5,2.4-5,5.2c0,2.8,2.3,5.2,5,5.2C252.2,280.8,254.5,278.4,254.5,275.6z M269.7,283l-0.5-0.7l-3-4.2h-0.7h-2.1v0.8v4.2
			h-0.6h-2.1v-3.7v-11.1h1h5.5c3.2,0,5.5,2,5.5,4.9c0,2.2-1.4,4-3.6,4.6l0.5,0.8l3.2,4.5H272H269.7z M263.3,275.5h2.8h0.7
			c1.8,0,3.1-0.9,3.1-2.4c0-1.5-1.3-2.4-3.1-2.4H264h-0.7v4.1V275.5z M280.5,277.4l-0.6-0.9l-5.3-8.4h0.8h2.3l0.5,0.8l3.6,5.9
			l0.6-0.9l3.6-5.8h0.6h2.4l-0.5,0.7l-5.4,8.5v0.8v4.8h-0.6h-2.1v-1.1V277.4z"/>
	</g>
	<g>
		<path class="st2" d="M109.3,146.6c-0.5,0-2.4-2.2-5.8-6.2c-1.3-1.5-2.8-3.2-4.5-5.1c-2.4,2.6-2.7,3.1-2.7,3.2
			c-1.4,1.6-3.3,2.5-5.1,2.5c-1.1,0-2.2-0.4-3-1c-0.9-0.7-1.5-1.9-1.6-3.2c-0.1-1.8,0.6-3.7,1.9-5.2c0.1-0.3,1.6-1.9,3.6-4.1
			c-4.6-4.9-9.2-9.6-13.7-13.9c-3.7,3-6,4.9-6.2,5.2c-1.1,0.9-2.3,1.4-3.6,1.4c-1.1,0-2.1-0.4-2.8-1.2c-0.6-0.7-0.9-1.6-0.8-2.6
			c0.1-1.4,0.9-2.8,2.1-3.8c0.2-0.2,2-1.8,5.5-4.4c-3.7-3.3-7.5-6.5-11.2-9.4c-1.9-1.6-3.6-3-5.3-4.2c-5.3,2.3-8.5,3.8-8.7,4
			c-0.7,0.3-1.4,0.5-2.1,0.5c-1.3,0-2.5-0.6-3-1.6c-0.3-0.7-0.4-1.4-0.1-2.2c0.4-1.1,1.2-2,2.4-2.6c0.2-0.2,2.1-1.1,5.6-2.5
			c-4.7-3.4-9.6-6.8-15.1-10.3l-1.3,0c-8.4,0-14.2,0.3-14.6,0.4l-0.2,0c-1.9,0-3.5-1.5-3.7-3.4c-0.1-1,0.2-1.9,0.9-2.6
			c0.7-0.8,1.6-1.2,2.6-1.3c0.2,0,1.9-0.1,4.7-0.1C12.3,66.5,4,62.6,3.6,62.5c-1.8-0.8-2.3-3.6-1.2-6.3c0.8-2,2.6-3.4,4.4-3.4
			c0.4,0,0.9,0.1,1.3,0.3c0.8,0.2,15.7,7.8,33.3,20.3c10.4,0.5,26.2,1.8,42.2,5.2c12.2-3.6,23.8-6.3,34.6-7.9
			c6.3-1.2,13.1-2.1,20-2.8c3.3-1.6,6.6-3.1,9.7-4.5c13.8-6.6,29.3-12.4,45.9-17.4c45.5-28.2,91.9-44.1,95.8-44.1
			c0.1,0,0.3,0,0.3,0.1c0.1,0.3-2.1,1.4-9.1,4.6C267.4,12.7,242.7,24.1,216,40c9.8-2.2,17.1-3.4,19.4-3.4c0.6,0,0.7,0.1,0.7,0.2
			c0.1,0.2-1.2,0.6-7.1,2.3c-5.2,1.4-13,3.6-22.2,6.6c-7.2,4.5-14,9.1-20.3,13.7c-3.4,2.3-7,4.8-10.7,7.5c10,0.5,16.7,1.4,17.1,1.9
			c0,0,0,0.1,0,0.1c0,0.2-0.5,0.2-4.1,0.2l-3.6,0c-3.2,0-7.6,0-12.7,0.2c-11.4,8.5-23.2,18-35,28.5c7,3.8,11.4,6.9,11.6,7.6
			c0,0.1,0,0.1,0,0.1c0,0-0.1,0-0.1,0c-0.2,0-1.1-0.4-3.2-1.4c-2.3-1.1-5.8-2.7-10.2-4.6c-17.4,15.6-29.7,28.5-34.2,33.3
			c5.3,7.5,8.3,12.9,8.1,13.7C109.5,146.5,109.4,146.6,109.3,146.6C109.4,146.6,109.3,146.6,109.3,146.6z M83.2,110.1
			c4.2,4.6,8.2,9.4,12,14.3c5.1-5.2,15.9-15.9,30.8-28.8c-5-1.9-9.9-3.7-14.7-5.1C99.3,98.2,89.4,105.4,83.2,110.1z M64.9,92.1
			c0.4,0.4,0.9,0.8,1.3,1.2c3.9,3.4,7.9,7.1,11.7,11.1c5.3-3.9,13.8-9.9,24.4-16.6c-5.6-1.4-10.8-2.5-15.9-3.3
			c-0.4-0.1-0.7-0.1-1.1-0.2c-0.3,0-0.6-0.1-0.8-0.2c-6.9,2.2-13.7,4.7-20.3,7.3C64.4,91.7,64.7,91.9,64.9,92.1z M115.7,87.6
			c4.4,1.7,8.8,3.6,13.1,5.6c9.8-8.4,19.7-16.3,29.3-23.4c-4.5,0.3-8.8,0.7-12.9,1.1C135.7,75.7,125.8,81.3,115.7,87.6z M50.9,80.4
			c2.8,2.2,5.4,4.3,7.9,6.4c4.2-1.6,8.6-3.2,12.8-4.6C65.1,81.4,58.1,80.8,50.9,80.4z M94.7,81c4.1,1,8.4,2.2,12.7,3.7
			c6.3-3.9,12.8-7.6,19.2-11c-2.5,0.4-5.1,1-7.7,1.5C111.4,76.6,103.3,78.5,94.7,81z M178.3,55.8c-8.8,3.5-17.2,7.2-24.7,11
			c3.1-0.1,6.1-0.2,9-0.2C167.6,62.9,172.9,59.3,178.3,55.8z"/>
		<path class="st3" d="M43.8,240.1c0,8.9,7.2,16.2,16.1,16.2c8.9,0,16.1-7.3,16.1-16.2c0-8.9-7.2-16.2-16.1-16.2
			C51,223.9,43.8,231.2,43.8,240.1z M51.9,240.1c0-5.3,3.3-9,8-9c4.7,0,8,3.7,8,9c0,5.3-3.3,8.9-8,8.9
			C55.1,249,51.9,245.4,51.9,240.1z M31.4,214.7v21.5v5.6l-16-20.7l-4.9-6.4h-6H1.8v33.2v7.4h5.8h2.5v-22.2v-5.9l18.7,24l3.2,4.2
			h5.8h2.4v-36.9v-3.7h-6.7H31.4z M86.9,228c0-1.1,0-3,0-3h-5.6h-2.1v26.6v3.8h5.5h2.2V246v-3.9V242c0.1-2.2-0.2-9.5,4.6-10.1
			c2.8-0.4,4.6,0.5,4.6,0.5v-5.3v-2.4c0,0-2.1-0.6-3.1-0.6C89.5,224.1,88,226.3,86.9,228z M104.4,217.7v4.8v2.2h-3.2h-1.7v5.2v2.6
			h4.9v9.5v5.1c0,6.3,3.1,9.1,10.1,9.1c2.2,0,3.7-0.2,6.6-0.6l0.9-0.1v-5.3V248l-0.9,0.3c-1.5,0.5-4,0.8-5.2,0.8
			c-2.6,0-3.8-1.1-3.8-3.5v-10.4v-2.6h7.2l1.5-4.8l0.9-3h-7.2h-2.3v-6.5v-2.9l-5.3,1.6L104.4,217.7z M125.4,212.3v28.2v14.7h3.7h4.1
			c0,0,0-6.9,0-12.6c0-4,0-7.5,0-7.8c1.5-1.9,3.5-3.8,8-3.8c3.2,0,5.2,1.2,5.2,7.4v7.6v9.2h4h3.8v-11.7V236
			c0-7.9-3.9-12.1-11.4-12.1c-4.7,0-7.5,1.7-9.5,3.6c0-1.4,0-10.1,0-10.1V210l-5.4,1.6L125.4,212.3z M196.3,225.5l-3.4,9
			c0,0-3,8-3.5,9.4c-0.6-1.8-4.6-12.4-4.6-12.4l-2.2-6h-3.9h-2.7l-2.9,8.1c0,0-3.2,8.8-3.7,10.3c-0.6-1.6-3.9-10.6-3.9-10.6
			l-2.8-7.7H157h-2.4l6.3,16.4l5.1,13.4h2.8h4.2l3.1-8.9c0,0,2.9-8.5,3.4-9.9c0.4,1.2,2.7,7.7,2.7,7.7l3.8,11.1h3.3h3.7l4.4-11.7
			l6.8-18.1H199H196.3z M251.6,236c-3.8-0.6-5.8-0.9-5.8-2.4c0-1.3,1.4-2.8,5.4-2.8c3.7,0,5.8,1.4,7.1,2.7l3.1-2.3l2.9-2.2
			c-4.4-4.5-10.4-5.1-12.9-5.1c-10.8,0-13.6,6.2-13.6,9.9c0,5.8,3.9,8.8,13.1,10c6.8,1,7.7,1.2,7.7,2.7c0,2.1-3.1,2.9-5.7,2.9
			c-4.2,0-7.3-1.4-9.1-4.1l-3,2.2l-3.2,2.4c2.3,2.9,5.8,6.4,14.6,6.4c9.2,0,14.4-3.7,14.4-10.2C266.6,238,258.7,236.9,251.6,236z
			 M271.3,217.7v4.2v2.9h-3.1h-1.8v4.4v3.3h3.3h1.6v5v9.6c0,6.3,3.1,9.1,10.1,9.1c2.2,0,3.7-0.2,6.6-0.6l0.9-0.1v-2.1V248l-0.9,0.3
			c-1.5,0.5-4,0.8-5.2,0.8c-2.6,0-3.8-1.1-3.8-3.5v-7.1v-6h4.9h3.5l0.7-4.9l0.4-2.9H282h-3v-5.5v-3.9l-4.9,1.5L271.3,217.7z
			 M219.6,224c-11,0-15.9,8.1-15.9,16.1c0,9.7,6.6,16.2,16.4,16.2c8,0,11.9-4.3,13.5-6.9l-4.1-2.2l-2.9-1.5
			c-0.7,1.7-2.9,3.6-6.7,3.6c-4.4-0.2-7-2.4-7.9-6.4c0.8,0,9.3,0,9.3,0h14.4V242C235.5,230.7,229.7,224.1,219.6,224z M212.2,236
			c1.1-3.3,3.4-5,7.2-5c4.1,0,6.5,1.6,7.5,5c-1.1,0-9.3,0-9.3,0S213,236,212.2,236z M1.8,164.1v5.1v35.4h2h6.8v-2.2c0,0,0-12,0-13
			c0.4,0,2.2,0,2.2,0h4.9c6.1,0,17.5,0,17.5-12.7c0-12.7-11.4-12.7-17.5-12.7h-2.5H1.8z M19.2,172.1c4.8,0,7.1,0.7,7.1,4.6
			c0,4-2.3,4.7-7.1,4.7h-2.4c0,0-5.4,0-6.2,0c0-0.4,0-2.8,0-2.8s0-5.7,0-6.5c0.5,0,3.4,0,3.4,0H19.2z M65.7,203.6
			c-0.2-0.3-0.4-1.3-0.4-4.3v-14.4c0-3.7,0-11.5-14.2-11.5c-7.1,0-11.9,2.5-13.9,7.2l3.3,0.8l4.3,1c0.6-1,2.1-2.2,6.3-2.2
			c4.3,0,6.4,1,6.4,3c0,0,0,0.3,0,0.6c-7.3,0.5-22.7,1.7-22.7,12.4c0,7.5,7.1,9.5,11.3,9.5c5.1,0,9-2,11.4-3.4
			c0.1,0.7,0.2,1.3,0.3,1.8l0.1,0.6h4.6h3.6L65.7,203.6z M57.6,195.5c-2.7,1.7-6.2,3.4-10.4,3.4c-1.4,0-2.6-0.4-3.2-1.1
			c-0.5-0.5-0.7-1.2-0.7-2.1c0,0,0-0.1,0-0.1c0-1.5,0.7-3.1,5.3-4.2c3-0.8,6-1.2,9-1.4c0,0.5,0,2.6,0,2.6S57.6,195.2,57.6,195.5z
			 M92.7,194.3c-0.9,2.2-3.6,4.2-7.8,4.2c-6,0-8.2-4.9-8.2-9.4c0-4.1,3-8.5,8.7-8.5c3.8,0,6.1,2,7,3.8l5.3-1.4l2.2-0.6
			c-1.6-4.8-6.5-9-15-9c-10.6,0.1-16.1,7.8-16.1,15.4c0,10.7,6.1,16.9,16.7,16.9c8.1,0,12.7-4.6,14.7-9.4l-5.8-1.5L92.7,194.3z
			 M103.5,163.1v5.6v1.8h6.5h1.3v-6.1v-1.3h-6.2H103.5z M103.5,174.3v26v4.4h5.2h2.5v-22.5v-7.8h-5.4H103.5z M127.8,174
			c0-1.2,0.3-1.9,0.9-2.6c1.1-1.5,5.3-1.8,8.2-1.5l1.1-3.5l1.1-3.4l-0.5-0.1c-3-0.5-6.7-0.3-7-0.3h-0.1c-1.5,0-6.2,0.5-9.1,3.6
			c-1.5,1.6-2.3,3.8-2.3,6.5c0,0,0,1.7,0,2.6c-1.1,0-5.1,0-5.1,0v2.4v4.8h3.5c0,0,1.3,0,1.6,0c0,0.9,0,16.8,0,16.8v5.4h4.8h2.9
			v-19.8c0,0,0-2.2,0-2.5c0.7,0,5.1,0,5.1,0h2.4l1.1-3.5l1.2-3.7h-6.1c0,0-3.3,0-3.8,0C127.8,174.7,127.8,174,127.8,174z
			 M142.4,204.7h2.6h5.1v-5.1v-25.3h-2h-5.7v4V204.7z M142.4,163.1v4.7v2.7h3.9h3.9v-3.1v-4.2h-2.8H142.4z M177.7,194.3
			c-0.9,2.2-3.5,4.2-7.8,4.2c-6,0-8.2-4.9-8.2-9.4c0-4.1,3.1-8.5,8.7-8.5c3.9,0,6.1,2,7,3.8l5.2-1.4l2.3-0.6c-1.6-4.8-6.5-9-15-9
			c-10.6,0.1-16.1,7.8-16.1,15.4c0,10.7,6.1,16.9,16.7,16.9c8.1,0,12.7-4.6,14.7-9.4l-5.3-1.4L177.7,194.3z M1.8,268.2H3h1.5
			l3.3,4.4l4.5,6v-5.8v-4.6h1H15v6.5v8.3h-1.6h-1.1l-4.8-6.4l-3-4v3.7v6.7H3.3H1.8v-4.6V268.2z M29.6,280.3H27h-4.6l-0.7,1.6
			l-0.5,1.1h-2.2h-0.8l2.7-6.5l3.5-8.3h1.3h1.7l3.1,7.3l3.1,7.5h-1.9h-1L29.6,280.3z M28.6,278l-0.8-1.9l-1.8-4.3l-1.3,3.1l-1.3,3.1
			H26H28.6z M38.2,270.6h-2.7h-2v-1.5v-0.9h2.9h9.2v1.2v1.3h-2.1h-2.6v7v5.3h-1.1h-1.6v-6.3V270.6z M49.4,268.2h1h1.7v9.4v5.4h-1.6
			h-1.1v-9.1V268.2z M55.8,275.6c0-4.2,3.6-7.6,7.8-7.6c4.2,0,7.8,3.5,7.8,7.6c0,4.2-3.6,7.7-7.8,7.7
			C59.4,283.2,55.8,279.7,55.8,275.6z M68.6,275.6c0-2.8-2.3-5.2-5-5.2c-2.7,0-5,2.4-5,5.2c0,2.8,2.3,5.2,5,5.2
			C66.3,280.8,68.6,278.4,68.6,275.6z M74.7,268.2h1.1h1.6l3.1,4.1l4.7,6.3v-5.5v-4.9h1.2h1.4v8.3v6.5h-1.6h-1l-4.9-6.5l-2.9-3.9
			v6.6v3.8h-1.3h-1.3v-8V268.2z M102.2,280.3h-4.1h-3l-0.5,1.1l-0.7,1.6h-1.7h-1.3l2.9-7l3.2-7.8h2h1l2.5,6l3.7,8.8h-0.8h-2.2
			l-0.6-1.5L102.2,280.3z M101.2,278l-0.8-1.9l-1.8-4.3l-0.8,1.8L96,278h1.9H101.2z M120.2,280.5v1.1v1.3h-5.7h-4.6v-9.7v-5.1h1.3
			h1.3v6.9v5.5h4H120.2z M143.7,280.5v1.5v1h-6.1h-4.2v-4.8v-10h0.8h1.9v8.2v4.2h4.5H143.7z M158.4,280.3h-5.7h-1.4l-0.8,2l-0.3,0.7
			H148h-0.9l4-9.6l2.2-5.2h1h2l2.9,6.9l3.3,7.9h-2.2h-0.8l-0.8-1.8L158.4,280.3z M157.4,278l-0.9-2.2l-1.7-4l-1.4,3.4l-1.2,2.8h3.1
			H157.4z M165.6,268.2h3h4.3c2.6,0,4.4,1.6,4.4,3.7c0,1.5-0.8,2.6-2.1,3.3c1.7,0.8,2.7,2.2,2.7,3.8c0,2.4-2,4-4.7,4h-4.6h-2.9v-6.7
			V268.2z M172.2,274.2c1.3,0,2.3-0.8,2.3-1.9c0-1.1-0.9-1.9-2.3-1.9h-1.8h-2.1v2.1v1.6h1.2H172.2z M172.6,280.7
			c1.5,0,2.5-0.9,2.5-2.1c0-1.2-1-2.1-2.5-2.1h-2.3h-2.1v2.4v1.8h2.4H172.6z M180.4,275.6c0-4.2,3.6-7.6,7.8-7.6
			c4.2,0,7.8,3.5,7.8,7.6c0,4.2-3.6,7.7-7.8,7.7C184,283.2,180.4,279.7,180.4,275.6z M193.2,275.6c0-2.8-2.3-5.2-5-5.2
			c-2.7,0-5,2.4-5,5.2c0,2.8,2.3,5.2,5,5.2C190.9,280.8,193.2,278.4,193.2,275.6z M207.9,283l-1.7-2.5l-1.8-2.5h-1.2h-1.7v2.5v2.5
			h-1.5h-1.2v-9.1v-5.7h3h3.5c3.2,0,5.5,2,5.5,4.9c0,2.2-1.4,4-3.6,4.6l2.8,3.9l0.9,1.3h-1.1H207.9z M201.6,275.5h2h1.5
			c1.8,0,3.1-0.9,3.1-2.4c0-1.5-1.3-2.4-3.1-2.4h-1.6h-1.8v3.3V275.5z M224.7,280.3h-1.8h-5.3l-0.3,0.8l-0.8,1.9h-1.1h-1.9l2.8-6.6
			l3.4-8.2h0.9h2.1l2.5,6.1l3.6,8.7h-0.9h-2.1l-0.4-1L224.7,280.3z M223.8,278l-2-4.7l-0.6-1.5l-2,4.9l-0.6,1.4h3.8H223.8z
			 M233.3,270.6h-0.9h-3.8v-0.8v-1.6h3h9.1v0.7v1.8h-0.9H236v1.5V283h-0.8h-1.9v-1.8V270.6z M241.8,275.6c0-4.2,3.6-7.6,7.8-7.6
			c4.2,0,7.8,3.5,7.8,7.6c0,4.2-3.6,7.7-7.8,7.7C245.3,283.2,241.8,279.7,241.8,275.6z M254.5,275.6c0-2.8-2.3-5.2-5-5.2
			c-2.7,0-5,2.4-5,5.2c0,2.8,2.3,5.2,5,5.2C252.2,280.8,254.5,278.4,254.5,275.6z M269.7,283l-0.5-0.7l-3-4.2h-0.7h-2.1v0.8v4.2
			h-0.6h-2.1v-3.7v-11.1h1h5.5c3.2,0,5.5,2,5.5,4.9c0,2.2-1.4,4-3.6,4.6l0.5,0.8l3.2,4.5H272H269.7z M263.3,275.5h2.8h0.7
			c1.8,0,3.1-0.9,3.1-2.4c0-1.5-1.3-2.4-3.1-2.4H264h-0.7v4.1V275.5z M280.5,277.4l-0.6-0.9l-5.3-8.4h0.8h2.3l0.5,0.8l3.6,5.9
			l0.6-0.9l3.6-5.8h0.6h2.4l-0.5,0.7l-5.4,8.5v0.8v4.8h-0.6h-2.1v-1.1V277.4z"/>
	</g>
</g>
</svg>
